<svg preserveAspectRatio="none" width="100%" height="100%" overflow="visible" style="display: block;" viewBox="0 0 73.9982 74" fill="none" xmlns="http://www.w3.org/2000/svg">
<g id="Group">
<path id="Vector" d="M56.2589 48.9525C53.8413 46.5657 50.8232 46.5657 48.421 48.9525C46.5885 50.7695 44.7561 52.5866 42.9544 54.4344C42.4617 54.9426 42.0459 55.0504 41.4454 54.7116C40.2597 54.0648 38.997 53.5413 37.8575 52.8329C32.5449 49.4914 28.0947 45.1952 24.1526 40.36C22.197 37.9578 20.4569 35.3862 19.2404 32.4913C18.9941 31.9061 19.0402 31.5211 19.5176 31.0438C21.3501 29.2729 23.1363 27.4559 24.938 25.6388C27.4479 23.1135 27.4479 20.1569 24.9226 17.6161C23.4905 16.1686 22.0584 14.752 20.6263 13.3045C19.148 11.8262 17.6852 10.3325 16.1915 8.86965C13.7739 6.51365 10.7557 6.51365 8.35355 8.88505C6.50571 10.7021 4.73486 12.5653 2.85622 14.3516C1.11616 15.9993 0.238437 18.0165 0.0536522 20.3725C-0.238923 24.2068 0.700398 27.8255 2.02469 31.3518C4.73486 38.6507 8.86171 45.1336 13.8663 51.0775C20.6263 59.1156 28.6952 65.4753 38.1346 70.0641C42.3847 72.1275 46.7887 73.7136 51.5777 73.9754C54.873 74.1601 57.7372 73.3286 60.0316 70.757C61.6023 69.0016 63.3731 67.4001 65.0362 65.7217C67.5 63.2271 67.5154 60.2089 65.067 57.7451C62.1412 54.804 59.2001 51.8782 56.2589 48.9525Z" fill="var(--fill-0, #C9A84C)"/>
<path id="Vector_2" d="M53.3178 36.6797L58.9999 35.7096C58.1068 30.4894 55.643 25.762 51.9011 22.0047C47.9436 18.0473 42.939 15.5527 37.4263 14.7828L36.6256 20.4957C40.891 21.0962 44.7715 23.0211 47.8358 26.0854C50.7308 28.9804 52.6248 32.6452 53.3178 36.6797Z" fill="var(--fill-0, #C9A84C)"/>
<path id="Vector_3" d="M62.2028 11.9802C55.643 5.42034 47.3431 1.27809 38.1808 0L37.3801 5.71292C45.295 6.82162 52.4708 10.4095 58.1376 16.0608C63.5117 21.435 67.038 28.2258 68.3161 35.6942L73.9982 34.7241C72.5045 26.07 68.4239 18.2167 62.2028 11.9802Z" fill="var(--fill-0, #C9A84C)"/>
</g>
</svg>
