<svg preserveAspectRatio="none" width="100%" height="100%" overflow="visible" style="display: block;" viewBox="0 0 368.788 368.788" fill="none" xmlns="http://www.w3.org/2000/svg">
<g id="fi_1341632" clip-path="url(#clip0_0_16)">
<path id="Vector" d="M21.6086 21.6086H86.4346V0H0V86.4346H21.6086V21.6086Z" fill="var(--fill-0, #4A7FA5)"/>
<path id="Vector_2" d="M282.353 0V21.6086H347.179V86.4346H368.788V0H282.353Z" fill="var(--fill-0, #4A7FA5)"/>
<path id="Vector_3" d="M347.179 347.178H282.353V368.787H368.788V282.352H347.179V347.178Z" fill="var(--fill-0, #4A7FA5)"/>
<path id="Vector_4" d="M21.6086 282.352H0V368.787H86.4346V347.178H21.6086V282.352Z" fill="var(--fill-0, #4A7FA5)"/>
<path id="Vector_5" d="M43.9377 43.2167V151.26H151.981V86.434H173.59V64.8253H151.981V43.2167H43.9377ZM130.372 129.651H65.5463V64.8253H130.372V129.651Z" fill="var(--fill-0, #4A7FA5)"/>
<path id="Vector_6" d="M324.85 324.129V216.086H281.633V194.477H260.024V216.086H195.198V237.694H216.807V259.303H195.198V280.912H216.807V324.129H324.85ZM238.415 237.694H303.241V302.52H238.415V237.694Z" fill="var(--fill-0, #4A7FA5)"/>
<path id="Vector_7" d="M108.764 194.477H151.981V172.869H43.9377V194.477H87.155V216.086H65.5463V237.695H87.155V280.912H65.5463V302.521H87.155V324.129H195.198V302.521H173.59V280.912H151.981V302.521H108.764V280.912H130.372V259.303H108.764V194.477Z" fill="var(--fill-0, #4A7FA5)"/>
<path id="Vector_8" d="M87.1553 86.4353H108.764V108.044H87.1553V86.4353Z" fill="var(--fill-0, #4A7FA5)"/>
<path id="Vector_9" d="M260.024 86.4353H281.633V108.044H260.024V86.4353Z" fill="var(--fill-0, #4A7FA5)"/>
<path id="Vector_10" d="M281.632 151.26H324.85V43.2167H216.806V151.26H260.024V172.869H281.632V151.26ZM238.415 129.651V64.8253H303.241V129.651H238.415Z" fill="var(--fill-0, #4A7FA5)"/>
<path id="Vector_11" d="M324.85 194.477V172.869C319.622 172.869 286.897 172.869 281.632 172.869V194.477H324.85Z" fill="var(--fill-0, #4A7FA5)"/>
<path id="Vector_12" d="M260.024 259.304H281.633V280.913H260.024V259.304Z" fill="var(--fill-0, #4A7FA5)"/>
<path id="Vector_13" d="M173.59 237.696H195.198V259.304H173.59V237.696Z" fill="var(--fill-0, #4A7FA5)"/>
<path id="Vector_14" d="M130.372 259.305H151.981C151.981 254.077 151.981 221.352 151.981 216.087H130.372V259.305Z" fill="var(--fill-0, #4A7FA5)"/>
<path id="Vector_15" d="M151.981 194.477H173.59V216.086H151.981V194.477Z" fill="var(--fill-0, #4A7FA5)"/>
<path id="Vector_16" d="M65.5463 237.696H43.9377V280.913H65.5463C65.5463 275.685 65.5463 242.96 65.5463 237.696Z" fill="var(--fill-0, #4A7FA5)"/>
<path id="Vector_17" d="M43.9377 302.521H65.5463V324.129H43.9377V302.521Z" fill="var(--fill-0, #4A7FA5)"/>
<path id="Vector_18" d="M173.59 43.2167H195.198V64.8253H173.59V43.2167Z" fill="var(--fill-0, #4A7FA5)"/>
<path id="Vector_19" d="M173.59 129.653H195.198C195.198 124.425 195.198 91.6996 195.198 86.4353H173.59V129.653Z" fill="var(--fill-0, #4A7FA5)"/>
<path id="Vector_20" d="M195.198 172.869V151.26H173.59V194.478H260.024V172.869H195.198Z" fill="var(--fill-0, #4A7FA5)"/>
</g>
<defs>
<clipPath id="clip0_0_16">
<rect width="368.788" height="368.788" fill="white"/>
</clipPath>
</defs>
</svg>
