<svg preserveAspectRatio="none" width="100%" height="100%" overflow="visible" style="display: block;" viewBox="0 0 25.2731 48.2215" fill="none" xmlns="http://www.w3.org/2000/svg">
<g id="Purple Black">
<path id="Ellipse 4" d="M12.6367 16.9058C16.0278 16.9058 19.0741 17.8624 21.2578 19.3814C23.4436 20.9019 24.7236 22.9496 24.7236 25.147C24.7235 27.3443 23.4435 29.3912 21.2578 30.9116C19.0741 32.4307 16.0278 33.3882 12.6367 33.3882C9.24541 33.3882 6.19846 32.4308 4.01465 30.9116C1.82906 29.3912 0.549955 27.3442 0.549805 25.147C0.549805 22.9496 1.82888 20.9019 4.01465 19.3814C6.19846 17.8622 9.24541 16.9058 12.6367 16.9058Z" fill="var(--fill-0, #282828)" stroke="var(--stroke-0, black)" stroke-width="1.09883"/>
<ellipse id="Ellipse 3" cx="8.79038" cy="25.1462" rx="7.6918" ry="6.59297" fill="var(--fill-0, #B7B7B7)"/>
<g id="Union">
<mask id="path-3-inside-1_0_6" fill="white">
<path d="M18.7411 25.5084H18.6786C18.2595 27.2389 15.7416 28.5699 12.6971 28.5699C9.6528 28.5698 7.13582 27.2388 6.71664 25.5084H6.65414V14.2847H18.7411V25.5084Z"/>
</mask>
<path d="M18.7411 25.5084H18.6786C18.2595 27.2389 15.7416 28.5699 12.6971 28.5699C9.6528 28.5698 7.13582 27.2388 6.71664 25.5084H6.65414V14.2847H18.7411V25.5084Z" fill="var(--fill-0, #282828)"/>
<path d="M18.7411 25.5084V26.6072H19.8399V25.5084H18.7411ZM18.6786 25.5084V24.4096H17.8141L17.6106 25.2497L18.6786 25.5084ZM12.6971 28.5699L12.6971 29.6687H12.6971V28.5699ZM6.71664 25.5084L7.78459 25.2497L7.58108 24.4096H6.71664V25.5084ZM6.65414 25.5084H5.55531V26.6072H6.65414V25.5084ZM6.65414 14.2847V13.1859H5.55531V14.2847H6.65414ZM18.7411 14.2847H19.8399V13.1859H18.7411V14.2847ZM18.7411 25.5084V24.4096H18.6786V25.5084V26.6072H18.7411V25.5084ZM18.6786 25.5084L17.6106 25.2497C17.5048 25.6866 17.078 26.2416 16.1679 26.7119C15.282 27.1697 14.0686 27.4711 12.6971 27.4711V28.5699V29.6687C14.3701 29.6687 15.9379 29.3046 17.1768 28.6643C18.3916 28.0365 19.4332 27.0607 19.7465 25.767L18.6786 25.5084ZM12.6971 28.5699L12.6971 27.4711C11.3258 27.471 10.1126 27.1697 9.22703 26.7119C8.31724 26.2416 7.89044 25.6867 7.78459 25.2497L6.71664 25.5084L5.6487 25.7671C5.96202 27.0605 7.0033 28.0363 8.21787 28.6642C9.45663 29.3045 11.0241 29.6687 12.6971 29.6687L12.6971 28.5699ZM6.71664 25.5084V24.4096H6.65414V25.5084V26.6072H6.71664V25.5084ZM6.65414 25.5084H7.75297V14.2847H6.65414H5.55531V25.5084H6.65414ZM6.65414 14.2847V15.3836H18.7411V14.2847V13.1859H6.65414V14.2847ZM18.7411 14.2847H17.6422V25.5084H18.7411H19.8399V14.2847H18.7411Z" fill="var(--stroke-0, black)" mask="url(#path-3-inside-1_0_6)"/>
</g>
<rect id="Rectangle 4" x="7.69119" y="15.2566" width="2.19766" height="7.6918" fill="var(--fill-0, #B7B7B7)"/>
<path id="Ellipse 1" d="M12.6972 0.549805C18.2872 0.549805 22.5869 4.1071 22.5869 8.24121C22.5869 12.3753 18.2872 15.9326 12.6972 15.9326C7.1075 15.9324 2.80858 12.3752 2.80858 8.24121C2.80858 4.1072 7.10751 0.549972 12.6972 0.549805Z" fill="var(--fill-0, #282828)" stroke="var(--stroke-0, black)" stroke-width="1.09883"/>
<ellipse id="Ellipse 2" cx="8.79018" cy="7.01597" rx="4.39531" ry="3.8459" fill="var(--fill-0, #B7B7B7)"/>
<rect id="Rectangle 5" x="10.9878" y="33.9368" width="2.19766" height="14.2848" fill="var(--fill-0, #DDDADA)"/>
</g>
</svg>
