<svg preserveAspectRatio="none" width="100%" height="100%" overflow="visible" style="display: block;" viewBox="0 0 602.593 155.166" fill="none" xmlns="http://www.w3.org/2000/svg">
<g id="Frame 1" opacity="0.1" filter="url(#filter0_d_0_37)">
<g clip-path="url(#clip0_0_37)">
<rect width="570.47" height="123.043" transform="translate(16.0618 16.0618)" fill="white"/>
<line id="Line 1" opacity="0.2" x1="405.201" y1="-25.4009" x2="197.504" y2="182.295" stroke="var(--stroke-0, black)" stroke-width="1.39821"/>
<line id="Line 17" opacity="0.3" x1="585.91" y1="-25.4009" x2="378.214" y2="182.295" stroke="var(--stroke-0, black)" stroke-width="1.39821"/>
<line id="Line 9" opacity="0.2" x1="496.369" y1="-25.4009" x2="288.673" y2="182.295" stroke="var(--stroke-0, black)" stroke-width="1.39821"/>
<line id="Line 18" opacity="0.2" x1="677.079" y1="-25.4009" x2="469.383" y2="182.295" stroke="var(--stroke-0, black)" stroke-width="1.39821"/>
<line id="Line 5" opacity="0.2" x1="450.785" y1="-25.4009" x2="243.089" y2="182.295" stroke="var(--stroke-0, black)" stroke-width="1.39821"/>
<line id="Line 19" opacity="0.2" x1="631.495" y1="-25.4009" x2="423.799" y2="182.295" stroke="var(--stroke-0, black)" stroke-width="1.39821"/>
<line id="Line 10" opacity="0.2" x1="541.954" y1="-25.4009" x2="334.258" y2="182.295" stroke="var(--stroke-0, black)" stroke-width="1.39821"/>
<line id="Line 20" opacity="0.2" x1="722.663" y1="-25.4009" x2="514.967" y2="182.295" stroke="var(--stroke-0, black)" stroke-width="1.39821"/>
<line id="Line 3" opacity="0.2" x1="427.993" y1="-25.4009" x2="220.297" y2="182.295" stroke="var(--stroke-0, black)" stroke-width="1.39821"/>
<line id="Line 21" opacity="0.2" x1="608.703" y1="-25.4009" x2="401.006" y2="182.295" stroke="var(--stroke-0, black)" stroke-width="1.39821"/>
<line id="Line 11" opacity="0.2" x1="519.162" y1="-25.4009" x2="311.466" y2="182.295" stroke="var(--stroke-0, black)" stroke-width="1.39821"/>
<line id="Line 22" opacity="0.2" x1="699.872" y1="-25.4009" x2="492.175" y2="182.295" stroke="var(--stroke-0, black)" stroke-width="1.39821"/>
<line id="Line 6" opacity="0.2" x1="473.577" y1="-25.4009" x2="265.881" y2="182.295" stroke="var(--stroke-0, black)" stroke-width="1.39821"/>
<line id="Line 23" opacity="0.2" x1="654.287" y1="-25.4009" x2="446.59" y2="182.295" stroke="var(--stroke-0, black)" stroke-width="1.39821"/>
<line id="Line 12" opacity="0.2" x1="564.746" y1="-25.4009" x2="357.05" y2="182.295" stroke="var(--stroke-0, black)" stroke-width="1.39821"/>
<line id="Line 24" opacity="0.2" x1="745.456" y1="-25.4009" x2="537.76" y2="182.295" stroke="var(--stroke-0, black)" stroke-width="1.39821"/>
<line id="Line 2" opacity="0.2" x1="417.14" y1="-25.4009" x2="209.443" y2="182.295" stroke="var(--stroke-0, black)" stroke-width="1.39821"/>
<line id="Line 25" opacity="0.2" x1="597.849" y1="-25.4009" x2="390.153" y2="182.295" stroke="var(--stroke-0, black)" stroke-width="1.39821"/>
<line id="Line 13" opacity="0.4" x1="508.308" y1="-25.4009" x2="300.612" y2="182.295" stroke="var(--stroke-0, black)" stroke-width="1.39821"/>
<line id="Line 26" opacity="0.2" x1="689.018" y1="-25.4009" x2="481.322" y2="182.295" stroke="var(--stroke-0, black)" stroke-width="1.39821"/>
<line id="Line 7" opacity="0.2" x1="462.724" y1="-25.4009" x2="255.028" y2="182.295" stroke="var(--stroke-0, black)" stroke-width="1.39821"/>
<line id="Line 27" opacity="0.2" x1="643.433" y1="-25.4009" x2="435.737" y2="182.295" stroke="var(--stroke-0, black)" stroke-width="1.39821"/>
<line id="Line 14" opacity="0.2" x1="553.892" y1="-25.4009" x2="346.196" y2="182.295" stroke="var(--stroke-0, black)" stroke-width="1.39821"/>
<line id="Line 28" opacity="0.2" x1="734.602" y1="-25.4009" x2="526.906" y2="182.295" stroke="var(--stroke-0, black)" stroke-width="1.39821"/>
<line id="Line 4" opacity="0.2" x1="439.932" y1="-25.4009" x2="232.236" y2="182.295" stroke="var(--stroke-0, black)" stroke-width="1.39821"/>
<line id="Line 29" opacity="0.2" x1="620.641" y1="-25.4009" x2="412.945" y2="182.295" stroke="var(--stroke-0, black)" stroke-width="1.39821"/>
<line id="Line 15" opacity="0.2" x1="531.101" y1="-25.4009" x2="323.405" y2="182.295" stroke="var(--stroke-0, black)" stroke-width="1.39821"/>
<line id="Line 30" opacity="0.2" x1="711.81" y1="-25.4009" x2="504.113" y2="182.295" stroke="var(--stroke-0, black)" stroke-width="1.39821"/>
<line id="Line 8" opacity="0.2" x1="485.516" y1="-25.4009" x2="277.82" y2="182.295" stroke="var(--stroke-0, black)" stroke-width="1.39821"/>
<line id="Line 31" opacity="0.2" x1="666.226" y1="-25.4009" x2="458.53" y2="182.295" stroke="var(--stroke-0, black)" stroke-width="1.39821"/>
<line id="Line 16" opacity="0.2" x1="576.685" y1="-25.4009" x2="368.989" y2="182.295" stroke="var(--stroke-0, black)" stroke-width="1.39821"/>
<line id="Line 32" opacity="0.2" x1="757.394" y1="-25.4009" x2="549.698" y2="182.295" stroke="var(--stroke-0, black)" stroke-width="1.39821"/>
<line id="Line 33" opacity="0.2" x1="40.3284" y1="-25.4009" x2="-167.368" y2="182.295" stroke="var(--stroke-0, black)" stroke-width="1.39821"/>
<line id="Line 34" opacity="0.2" x1="221.038" y1="-25.4009" x2="13.3415" y2="182.295" stroke="var(--stroke-0, black)" stroke-width="1.39821"/>
<line id="Line 35" opacity="0.2" x1="131.496" y1="-25.4009" x2="-76.1999" y2="182.295" stroke="var(--stroke-0, black)" stroke-width="1.39821"/>
<line id="Line 36" opacity="0.2" x1="312.206" y1="-25.4009" x2="104.51" y2="182.295" stroke="var(--stroke-0, black)" stroke-width="1.39821"/>
<line id="Line 37" opacity="0.2" x1="85.9123" y1="-25.4009" x2="-121.784" y2="182.295" stroke="var(--stroke-0, black)" stroke-width="1.39821"/>
<line id="Line 38" opacity="0.2" x1="266.622" y1="-25.4009" x2="58.9254" y2="182.295" stroke="var(--stroke-0, black)" stroke-width="1.39821"/>
<line id="Line 39" opacity="0.2" x1="177.081" y1="-25.4009" x2="-30.6149" y2="182.295" stroke="var(--stroke-0, black)" stroke-width="1.39821"/>
<line id="Line 40" opacity="0.2" x1="357.791" y1="-25.4009" x2="150.094" y2="182.295" stroke="var(--stroke-0, black)" stroke-width="1.39821"/>
<line id="Line 41" opacity="0.2" x1="63.1201" y1="-25.4009" x2="-144.576" y2="182.295" stroke="var(--stroke-0, black)" stroke-width="1.39821"/>
<line id="Line 42" opacity="0.2" x1="243.83" y1="-25.4009" x2="36.1338" y2="182.295" stroke="var(--stroke-0, black)" stroke-width="1.39821"/>
<line id="Line 43" opacity="0.2" x1="154.289" y1="-25.4009" x2="-53.4071" y2="182.295" stroke="var(--stroke-0, black)" stroke-width="1.39821"/>
<line id="Line 44" opacity="0.2" x1="334.998" y1="-25.4009" x2="127.302" y2="182.295" stroke="var(--stroke-0, black)" stroke-width="1.39821"/>
<line id="Line 45" opacity="0.2" x1="108.705" y1="-25.4009" x2="-98.9916" y2="182.295" stroke="var(--stroke-0, black)" stroke-width="1.39821"/>
<line id="Line 46" opacity="0.2" x1="289.414" y1="-25.4009" x2="81.7177" y2="182.295" stroke="var(--stroke-0, black)" stroke-width="1.39821"/>
<line id="Line 47" opacity="0.2" x1="199.873" y1="-25.4009" x2="-7.82267" y2="182.295" stroke="var(--stroke-0, black)" stroke-width="1.39821"/>
<line id="Line 48" opacity="0.2" x1="380.583" y1="-25.4009" x2="172.887" y2="182.295" stroke="var(--stroke-0, black)" stroke-width="1.39821"/>
<line id="Line 49" opacity="0.2" x1="52.2664" y1="-25.4009" x2="-155.43" y2="182.295" stroke="var(--stroke-0, black)" stroke-width="1.39821"/>
<line id="Line 50" opacity="0.2" x1="232.976" y1="-25.4009" x2="25.28" y2="182.295" stroke="var(--stroke-0, black)" stroke-width="1.39821"/>
<line id="Line 51" opacity="0.2" x1="143.436" y1="-25.4009" x2="-64.2603" y2="182.295" stroke="var(--stroke-0, black)" stroke-width="1.39821"/>
<line id="Line 52" opacity="0.2" x1="324.145" y1="-25.4009" x2="116.448" y2="182.295" stroke="var(--stroke-0, black)" stroke-width="1.39821"/>
<line id="Line 53" opacity="0.2" x1="97.8514" y1="-25.4009" x2="-109.845" y2="182.295" stroke="var(--stroke-0, black)" stroke-width="1.39821"/>
<line id="Line 54" opacity="0.2" x1="278.56" y1="-25.4009" x2="70.864" y2="182.295" stroke="var(--stroke-0, black)" stroke-width="1.39821"/>
<line id="Line 55" opacity="0.2" x1="189.02" y1="-25.4009" x2="-18.6764" y2="182.295" stroke="var(--stroke-0, black)" stroke-width="1.39821"/>
<line id="Line 56" opacity="0.2" x1="369.729" y1="-25.4009" x2="162.033" y2="182.295" stroke="var(--stroke-0, black)" stroke-width="1.39821"/>
<line id="Line 57" opacity="0.2" x1="75.0591" y1="-25.4009" x2="-132.637" y2="182.295" stroke="var(--stroke-0, black)" stroke-width="1.39821"/>
<line id="Line 58" opacity="0.2" x1="255.768" y1="-25.4009" x2="48.0723" y2="182.295" stroke="var(--stroke-0, black)" stroke-width="1.39821"/>
<line id="Line 59" opacity="0.2" x1="166.228" y1="-25.4009" x2="-41.4686" y2="182.295" stroke="var(--stroke-0, black)" stroke-width="1.39821"/>
<line id="Line 60" opacity="0.2" x1="346.937" y1="-25.4009" x2="139.241" y2="182.295" stroke="var(--stroke-0, black)" stroke-width="1.39821"/>
<line id="Line 61" opacity="0.2" x1="120.643" y1="-25.4009" x2="-87.0531" y2="182.295" stroke="var(--stroke-0, black)" stroke-width="1.39821"/>
<line id="Line 62" opacity="0.2" x1="301.353" y1="-25.4009" x2="93.6568" y2="182.295" stroke="var(--stroke-0, black)" stroke-width="1.39821"/>
<line id="Line 63" opacity="0.2" x1="211.812" y1="-25.4009" x2="4.11587" y2="182.295" stroke="var(--stroke-0, black)" stroke-width="1.39821"/>
<line id="Line 64" opacity="0.2" x1="392.521" y1="-25.4009" x2="184.825" y2="182.295" stroke="var(--stroke-0, black)" stroke-width="1.39821"/>
<line id="Line 65" opacity="0.2" x1="404.212" y1="182.294" x2="196.516" y2="-25.4017" stroke="var(--stroke-0, black)" stroke-width="1.39821"/>
<line id="Line 66" opacity="0.2" x1="584.922" y1="182.294" x2="377.226" y2="-25.4017" stroke="var(--stroke-0, black)" stroke-width="1.39821"/>
<line id="Line 67" opacity="0.2" x1="495.381" y1="182.294" x2="287.685" y2="-25.4017" stroke="var(--stroke-0, black)" stroke-width="1.39821"/>
<line id="Line 68" opacity="0.2" x1="676.09" y1="182.294" x2="468.394" y2="-25.4017" stroke="var(--stroke-0, black)" stroke-width="1.39821"/>
<line id="Line 69" opacity="0.2" x1="449.796" y1="182.294" x2="242.1" y2="-25.4017" stroke="var(--stroke-0, black)" stroke-width="1.39821"/>
<line id="Line 70" opacity="0.3" x1="630.506" y1="182.294" x2="422.81" y2="-25.4017" stroke="var(--stroke-0, black)" stroke-width="1.39821"/>
<line id="Line 71" opacity="0.2" x1="540.965" y1="182.294" x2="333.269" y2="-25.4017" stroke="var(--stroke-0, black)" stroke-width="1.39821"/>
<line id="Line 72" opacity="0.2" x1="721.675" y1="182.294" x2="513.978" y2="-25.4017" stroke="var(--stroke-0, black)" stroke-width="1.39821"/>
<line id="Line 73" opacity="0.2" x1="427.005" y1="182.294" x2="219.308" y2="-25.4017" stroke="var(--stroke-0, black)" stroke-width="1.39821"/>
<line id="Line 74" opacity="0.2" x1="607.714" y1="182.294" x2="400.018" y2="-25.4017" stroke="var(--stroke-0, black)" stroke-width="1.39821"/>
<line id="Line 75" opacity="0.4" x1="518.174" y1="182.294" x2="310.477" y2="-25.4017" stroke="var(--stroke-0, black)" stroke-width="1.39821"/>
<line id="Line 76" opacity="0.2" x1="698.883" y1="182.294" x2="491.187" y2="-25.4017" stroke="var(--stroke-0, black)" stroke-width="1.39821"/>
<line id="Line 77" opacity="0.2" x1="472.588" y1="182.294" x2="264.892" y2="-25.4017" stroke="var(--stroke-0, black)" stroke-width="1.39821"/>
<line id="Line 78" opacity="0.2" x1="653.298" y1="182.294" x2="445.602" y2="-25.4017" stroke="var(--stroke-0, black)" stroke-width="1.39821"/>
<line id="Line 79" opacity="0.2" x1="563.758" y1="182.294" x2="356.061" y2="-25.4017" stroke="var(--stroke-0, black)" stroke-width="1.39821"/>
<line id="Line 80" opacity="0.2" x1="744.467" y1="182.294" x2="536.771" y2="-25.4017" stroke="var(--stroke-0, black)" stroke-width="1.39821"/>
<line id="Line 81" opacity="0.2" x1="416.151" y1="182.294" x2="208.455" y2="-25.4017" stroke="var(--stroke-0, black)" stroke-width="1.39821"/>
<line id="Line 82" opacity="0.2" x1="596.86" y1="182.294" x2="389.164" y2="-25.4017" stroke="var(--stroke-0, black)" stroke-width="1.39821"/>
<line id="Line 83" opacity="0.2" x1="507.319" y1="182.294" x2="299.623" y2="-25.4017" stroke="var(--stroke-0, black)" stroke-width="1.39821"/>
<line id="Line 84" opacity="0.2" x1="688.029" y1="182.294" x2="480.333" y2="-25.4017" stroke="var(--stroke-0, black)" stroke-width="1.39821"/>
<line id="Line 85" opacity="0.4" x1="461.735" y1="182.294" x2="254.039" y2="-25.4017" stroke="var(--stroke-0, black)" stroke-width="1.39821"/>
<line id="Line 86" opacity="0.2" x1="642.445" y1="182.294" x2="434.749" y2="-25.4017" stroke="var(--stroke-0, black)" stroke-width="1.39821"/>
<line id="Line 87" opacity="0.2" x1="552.904" y1="182.294" x2="345.208" y2="-25.4017" stroke="var(--stroke-0, black)" stroke-width="1.39821"/>
<line id="Line 88" opacity="0.2" x1="733.614" y1="182.294" x2="525.917" y2="-25.4017" stroke="var(--stroke-0, black)" stroke-width="1.39821"/>
<line id="Line 89" opacity="0.2" x1="438.943" y1="182.294" x2="231.247" y2="-25.4017" stroke="var(--stroke-0, black)" stroke-width="1.39821"/>
<line id="Line 90" opacity="0.2" x1="619.652" y1="182.294" x2="411.956" y2="-25.4017" stroke="var(--stroke-0, black)" stroke-width="1.39821"/>
<line id="Line 91" opacity="0.2" x1="530.112" y1="182.294" x2="322.416" y2="-25.4017" stroke="var(--stroke-0, black)" stroke-width="1.39821"/>
<line id="Line 92" opacity="0.2" x1="710.821" y1="182.294" x2="503.125" y2="-25.4017" stroke="var(--stroke-0, black)" stroke-width="1.39821"/>
<line id="Line 93" opacity="0.2" x1="484.528" y1="182.294" x2="276.832" y2="-25.4017" stroke="var(--stroke-0, black)" stroke-width="1.39821"/>
<line id="Line 94" opacity="0.2" x1="665.237" y1="182.294" x2="457.541" y2="-25.4017" stroke="var(--stroke-0, black)" stroke-width="1.39821"/>
<line id="Line 95" opacity="0.2" x1="575.696" y1="182.294" x2="368" y2="-25.4017" stroke="var(--stroke-0, black)" stroke-width="1.39821"/>
<line id="Line 96" opacity="0.2" x1="756.405" y1="182.294" x2="548.709" y2="-25.4017" stroke="var(--stroke-0, black)" stroke-width="1.39821"/>
<line id="Line 97" opacity="0.2" x1="39.3397" y1="182.294" x2="-168.356" y2="-25.4017" stroke="var(--stroke-0, black)" stroke-width="1.39821"/>
<line id="Line 98" opacity="0.2" x1="220.049" y1="182.294" x2="12.3528" y2="-25.4017" stroke="var(--stroke-0, black)" stroke-width="1.39821"/>
<line id="Line 99" opacity="0.2" x1="130.508" y1="182.294" x2="-77.1886" y2="-25.4017" stroke="var(--stroke-0, black)" stroke-width="1.39821"/>
<line id="Line 100" opacity="0.2" x1="311.217" y1="182.294" x2="103.521" y2="-25.4017" stroke="var(--stroke-0, black)" stroke-width="1.39821"/>
<line id="Line 101" opacity="0.2" x1="84.9236" y1="182.294" x2="-122.773" y2="-25.4017" stroke="var(--stroke-0, black)" stroke-width="1.39821"/>
<line id="Line 102" opacity="0.2" x1="265.633" y1="182.294" x2="57.9368" y2="-25.4017" stroke="var(--stroke-0, black)" stroke-width="1.39821"/>
<line id="Line 103" opacity="0.1" x1="176.093" y1="182.294" x2="-31.6036" y2="-25.4017" stroke="var(--stroke-0, black)" stroke-width="1.39821"/>
<line id="Line 104" opacity="0.2" x1="356.802" y1="182.294" x2="149.106" y2="-25.4017" stroke="var(--stroke-0, black)" stroke-width="1.39821"/>
<line id="Line 105" opacity="0.2" x1="62.1314" y1="182.294" x2="-145.565" y2="-25.4017" stroke="var(--stroke-0, black)" stroke-width="1.39821"/>
<line id="Line 106" opacity="0.2" x1="242.841" y1="182.294" x2="35.1451" y2="-25.4017" stroke="var(--stroke-0, black)" stroke-width="1.39821"/>
<line id="Line 107" opacity="0.2" x1="153.3" y1="182.294" x2="-54.3958" y2="-25.4017" stroke="var(--stroke-0, black)" stroke-width="1.39821"/>
<line id="Line 108" opacity="0.2" x1="334.01" y1="182.294" x2="126.313" y2="-25.4017" stroke="var(--stroke-0, black)" stroke-width="1.39821"/>
<line id="Line 109" opacity="0.2" x1="107.716" y1="182.294" x2="-99.9803" y2="-25.4017" stroke="var(--stroke-0, black)" stroke-width="1.39821"/>
<line id="Line 110" opacity="0.2" x1="288.425" y1="182.294" x2="80.729" y2="-25.4017" stroke="var(--stroke-0, black)" stroke-width="1.39821"/>
<line id="Line 111" opacity="0.2" x1="198.885" y1="182.294" x2="-8.81136" y2="-25.4017" stroke="var(--stroke-0, black)" stroke-width="1.39821"/>
<line id="Line 112" opacity="0.4" x1="379.594" y1="182.294" x2="171.898" y2="-25.4017" stroke="var(--stroke-0, black)" stroke-width="1.39821"/>
<line id="Line 113" opacity="0.2" x1="51.2777" y1="182.294" x2="-156.418" y2="-25.4017" stroke="var(--stroke-0, black)" stroke-width="1.39821"/>
<line id="Line 114" opacity="0.2" x1="231.988" y1="182.294" x2="24.2914" y2="-25.4017" stroke="var(--stroke-0, black)" stroke-width="1.39821"/>
<line id="Line 115" opacity="0.2" x1="142.447" y1="182.294" x2="-65.249" y2="-25.4017" stroke="var(--stroke-0, black)" stroke-width="1.39821"/>
<line id="Line 116" opacity="0.4" x1="323.156" y1="182.294" x2="115.46" y2="-25.4017" stroke="var(--stroke-0, black)" stroke-width="1.39821"/>
<line id="Line 117" opacity="0.2" x1="96.8627" y1="182.294" x2="-110.833" y2="-25.4017" stroke="var(--stroke-0, black)" stroke-width="1.39821"/>
<line id="Line 118" opacity="0.2" x1="277.571" y1="182.294" x2="69.8753" y2="-25.4017" stroke="var(--stroke-0, black)" stroke-width="1.39821"/>
<line id="Line 119" opacity="0.2" x1="188.031" y1="182.294" x2="-19.6651" y2="-25.4017" stroke="var(--stroke-0, black)" stroke-width="1.39821"/>
<line id="Line 120" opacity="0.2" x1="368.74" y1="182.294" x2="161.044" y2="-25.4017" stroke="var(--stroke-0, black)" stroke-width="1.39821"/>
<line id="Line 121" opacity="0.2" x1="74.0704" y1="182.294" x2="-133.626" y2="-25.4017" stroke="var(--stroke-0, black)" stroke-width="1.39821"/>
<line id="Line 122" opacity="0.2" x1="254.78" y1="182.294" x2="47.0836" y2="-25.4017" stroke="var(--stroke-0, black)" stroke-width="1.39821"/>
<line id="Line 123" opacity="0.2" x1="165.239" y1="182.294" x2="-42.4573" y2="-25.4017" stroke="var(--stroke-0, black)" stroke-width="1.39821"/>
<line id="Line 124" opacity="0.2" x1="345.949" y1="182.294" x2="138.253" y2="-25.4017" stroke="var(--stroke-0, black)" stroke-width="1.39821"/>
<line id="Line 125" opacity="0.2" x1="119.654" y1="182.294" x2="-88.0418" y2="-25.4017" stroke="var(--stroke-0, black)" stroke-width="1.39821"/>
<line id="Line 126" opacity="0.2" x1="300.364" y1="182.294" x2="92.6681" y2="-25.4017" stroke="var(--stroke-0, black)" stroke-width="1.39821"/>
<line id="Line 127" opacity="0.2" x1="210.823" y1="182.294" x2="3.12718" y2="-25.4017" stroke="var(--stroke-0, black)" stroke-width="1.39821"/>
<line id="Line 128" opacity="0.2" x1="391.533" y1="182.294" x2="183.836" y2="-25.4017" stroke="var(--stroke-0, black)" stroke-width="1.39821"/>
</g>
</g>
<defs>
<filter id="filter0_d_0_37" x="0" y="0" width="602.593" height="155.166" filterUnits="userSpaceOnUse" color-interpolation-filters="sRGB">
<feFlood flood-opacity="0" result="BackgroundImageFix"/>
<feColorMatrix in="SourceAlpha" type="matrix" values="0 0 0 0 0 0 0 0 0 0 0 0 0 0 0 0 0 0 127 0" result="hardAlpha"/>
<feOffset/>
<feGaussianBlur stdDeviation="8.03089"/>
<feComposite in2="hardAlpha" operator="out"/>
<feColorMatrix type="matrix" values="0 0 0 0 0 0 0 0 0 0 0 0 0 0 0 0 0 0 0.4 0"/>
<feBlend mode="normal" in2="BackgroundImageFix" result="effect1_dropShadow_0_37"/>
<feBlend mode="normal" in="SourceGraphic" in2="effect1_dropShadow_0_37" result="shape"/>
</filter>
<clipPath id="clip0_0_37">
<rect width="570.47" height="123.043" fill="white" transform="translate(16.0618 16.0618)"/>
</clipPath>
</defs>
</svg>
