<svg preserveAspectRatio="none" width="100%" height="100%" overflow="visible" style="display: block;" viewBox="0 0 22.2858 42.5217" fill="none" xmlns="http://www.w3.org/2000/svg">
<g id="Purple Black">
<path id="Ellipse 4" d="M11.1426 14.9069C14.1329 14.9069 16.8195 15.751 18.7451 17.0905C20.6725 18.4313 21.8008 20.2368 21.8008 22.1744C21.8006 24.112 20.6724 25.9167 18.7451 27.2575C16.8194 28.597 14.1329 29.4411 11.1426 29.4411C8.15224 29.441 5.46566 28.597 3.54004 27.2575C1.6129 25.9168 0.484531 24.1119 0.484375 22.1744C0.484375 20.2368 1.61271 18.4313 3.54004 17.0905C5.46566 15.7509 8.15224 14.9069 11.1426 14.9069Z" fill="var(--fill-0, #282828)" stroke="var(--stroke-0, black)" stroke-width="0.968944"/>
<ellipse id="Ellipse 3" cx="7.75132" cy="22.1739" rx="6.78261" ry="5.81366" fill="var(--fill-0, #B7B7B7)"/>
<g id="Union">
<mask id="path-3-inside-1_0_204" fill="white">
<path d="M16.5255 22.4937H16.4698C16.0998 24.0193 13.8804 25.1918 11.1964 25.1919C8.5121 25.1919 6.29197 24.0194 5.92196 22.4937H5.86727V22.063C5.8672 22.0565 5.8663 22.05 5.8663 22.0435C5.8663 22.0367 5.8672 22.0297 5.86727 22.023L5.86727 12.5962L16.5255 12.5962V22.4937Z"/>
</mask>
<path d="M16.5255 22.4937H16.4698C16.0998 24.0193 13.8804 25.1918 11.1964 25.1919C8.5121 25.1919 6.29197 24.0194 5.92196 22.4937H5.86727V22.063C5.8672 22.0565 5.8663 22.05 5.8663 22.0435C5.8663 22.0367 5.8672 22.0297 5.86727 22.023L5.86727 12.5962L16.5255 12.5962V22.4937Z" fill="var(--fill-0, #282828)"/>
<path d="M16.5255 22.4937V23.4626H17.4944V22.4937H16.5255ZM16.4698 22.4937V21.5247H15.7078L15.5282 22.2653L16.4698 22.4937ZM11.1964 25.1919V26.1609H11.1964L11.1964 25.1919ZM5.92196 22.4937L6.86361 22.2653L6.684 21.5247H5.92196V22.4937ZM5.86727 22.4937H4.89833V23.4626H5.86727V22.4937ZM5.86727 22.063H6.83627L6.83616 22.0529L5.86727 22.063ZM5.8663 22.0435H4.89735V22.0436L5.8663 22.0435ZM5.86727 22.023L6.83622 22.0333V22.023H5.86727ZM5.86727 12.5962V11.6273H4.89833V12.5962H5.86727ZM16.5255 12.5962H17.4944V11.6273H16.5255V12.5962ZM16.5255 22.4937V21.5247H16.4698V22.4937V23.4626H16.5255V22.4937ZM16.4698 22.4937L15.5282 22.2653C15.4347 22.6505 15.0584 23.1395 14.2561 23.554C13.4752 23.9574 12.4055 24.2229 11.1963 24.223L11.1964 25.1919L11.1964 26.1609C12.6713 26.1608 14.0533 25.84 15.1456 25.2757C16.2165 24.7225 17.1349 23.8625 17.4115 22.7221L16.4698 22.4937ZM11.1964 25.1919V24.223C9.98708 24.223 8.91712 23.9575 8.13596 23.554C7.33343 23.1395 6.95701 22.6504 6.86361 22.2653L5.92196 22.4937L4.98031 22.722C5.25692 23.8626 6.17557 24.7226 7.24668 25.2758C8.33916 25.8401 9.7214 26.1609 11.1964 26.1609V25.1919ZM5.92196 22.4937V21.5247H5.86727V22.4937V23.4626H5.92196V22.4937ZM5.86727 22.4937H6.83622V22.063H5.86727H4.89833V22.4937H5.86727ZM5.86727 22.063L6.83616 22.0529C6.83593 22.0309 6.83505 22.0129 6.8344 22.0018C6.83407 21.9962 6.83375 21.9915 6.83355 21.9885C6.83344 21.987 6.83335 21.9857 6.83329 21.9849C6.83326 21.9845 6.83323 21.9841 6.83321 21.9839C6.83319 21.9835 6.83319 21.9835 6.83318 21.9833C6.83313 21.9826 6.83323 21.9841 6.83337 21.9861C6.83352 21.9883 6.83377 21.9922 6.83402 21.9971C6.83453 22.0066 6.83524 22.0229 6.83524 22.0434L5.8663 22.0435L4.89735 22.0436C4.89735 22.0673 4.89817 22.0868 4.89885 22.0997C4.8992 22.1062 4.89955 22.1116 4.8998 22.1155C4.90005 22.1191 4.90027 22.1222 4.90034 22.1232C4.90047 22.1249 4.90039 22.1238 4.90032 22.1228C4.90023 22.1215 4.90002 22.1184 4.89978 22.1144C4.89933 22.1066 4.89858 22.0918 4.89838 22.0731L5.86727 22.063ZM5.8663 22.0435H6.83524C6.83524 22.0629 6.8346 22.0782 6.83416 22.0869C6.83394 22.0914 6.83372 22.095 6.8336 22.0969C6.83349 22.0987 6.8334 22.1 6.83344 22.0993C6.83345 22.0992 6.83346 22.0991 6.83348 22.0988C6.8335 22.0985 6.83352 22.0982 6.83355 22.0978C6.83361 22.097 6.83369 22.0957 6.83378 22.0943C6.83397 22.0915 6.83425 22.0871 6.83455 22.0818C6.83512 22.0714 6.83594 22.0543 6.83616 22.0333L5.86727 22.023L4.89838 22.0126C4.89857 21.995 4.89925 21.9813 4.89963 21.9744C4.89983 21.9708 4.90001 21.9681 4.90008 21.967C4.90013 21.9662 4.90019 21.9653 4.90007 21.9671C4.89997 21.9686 4.89929 21.9783 4.89871 21.9898C4.8981 22.0019 4.89735 22.0207 4.89735 22.0435H5.8663ZM5.86727 22.023H6.83622L6.83622 12.5962H5.86727H4.89833L4.89833 22.023H5.86727ZM5.86727 12.5962V13.5652H16.5255V12.5962V11.6273H5.86727V12.5962ZM16.5255 12.5962H15.5565V22.4937H16.5255H17.4944V12.5962H16.5255Z" fill="var(--stroke-0, black)" mask="url(#path-3-inside-1_0_204)"/>
</g>
<rect id="Rectangle 4" x="6.78179" y="13.4531" width="1.93789" height="6.78261" fill="var(--fill-0, #B7B7B7)"/>
<path id="Ellipse 1" d="M11.1966 0.484375C16.1256 0.484422 19.917 3.62138 19.9174 7.2666C19.9174 10.912 16.1258 14.0498 11.1966 14.0498C6.26746 14.0498 2.47595 10.9121 2.47595 7.2666C2.47628 3.62136 6.26767 0.484375 11.1966 0.484375Z" fill="var(--fill-0, #282828)" stroke="var(--stroke-0, black)" stroke-width="0.968944"/>
<ellipse id="Ellipse 2" cx="7.75095" cy="6.18665" rx="3.87578" ry="3.3913" fill="var(--fill-0, #B7B7B7)"/>
<rect id="Rectangle 5" x="9.68883" y="29.9253" width="1.93789" height="12.5963" fill="var(--fill-0, #DDDADA)"/>
</g>
</svg>
