<svg preserveAspectRatio="none" width="100%" height="100%" overflow="visible" style="display: block;" viewBox="0 0 531.365 136.825" fill="none" xmlns="http://www.w3.org/2000/svg">
<g id="Frame 1" opacity="0.1" filter="url(#filter0_d_0_224)">
<g clip-path="url(#clip0_0_224)">
<rect width="503.039" height="108.499" transform="translate(14.1632 14.1632)" fill="white"/>
<line id="Line 1" opacity="0.2" x1="357.305" y1="-22.3983" x2="174.159" y2="160.748" stroke="var(--stroke-0, black)" stroke-width="1.23294"/>
<line id="Line 17" opacity="0.3" x1="516.654" y1="-22.3983" x2="333.508" y2="160.748" stroke="var(--stroke-0, black)" stroke-width="1.23294"/>
<line id="Line 9" opacity="0.2" x1="437.697" y1="-22.3983" x2="254.551" y2="160.748" stroke="var(--stroke-0, black)" stroke-width="1.23294"/>
<line id="Line 18" opacity="0.2" x1="597.046" y1="-22.3983" x2="413.9" y2="160.748" stroke="var(--stroke-0, black)" stroke-width="1.23294"/>
<line id="Line 5" opacity="0.2" x1="397.501" y1="-22.3983" x2="214.355" y2="160.748" stroke="var(--stroke-0, black)" stroke-width="1.23294"/>
<line id="Line 19" opacity="0.2" x1="556.851" y1="-22.3983" x2="373.705" y2="160.748" stroke="var(--stroke-0, black)" stroke-width="1.23294"/>
<line id="Line 10" opacity="0.2" x1="477.894" y1="-22.3983" x2="294.748" y2="160.748" stroke="var(--stroke-0, black)" stroke-width="1.23294"/>
<line id="Line 20" opacity="0.2" x1="637.242" y1="-22.3983" x2="454.096" y2="160.748" stroke="var(--stroke-0, black)" stroke-width="1.23294"/>
<line id="Line 3" opacity="0.2" x1="377.403" y1="-22.3983" x2="194.257" y2="160.748" stroke="var(--stroke-0, black)" stroke-width="1.23294"/>
<line id="Line 21" opacity="0.2" x1="536.752" y1="-22.3983" x2="353.606" y2="160.748" stroke="var(--stroke-0, black)" stroke-width="1.23294"/>
<line id="Line 11" opacity="0.2" x1="457.796" y1="-22.3983" x2="274.65" y2="160.748" stroke="var(--stroke-0, black)" stroke-width="1.23294"/>
<line id="Line 22" opacity="0.2" x1="617.145" y1="-22.3983" x2="433.999" y2="160.748" stroke="var(--stroke-0, black)" stroke-width="1.23294"/>
<line id="Line 6" opacity="0.2" x1="417.599" y1="-22.3983" x2="234.453" y2="160.748" stroke="var(--stroke-0, black)" stroke-width="1.23294"/>
<line id="Line 23" opacity="0.2" x1="576.948" y1="-22.3983" x2="393.802" y2="160.748" stroke="var(--stroke-0, black)" stroke-width="1.23294"/>
<line id="Line 12" opacity="0.2" x1="497.991" y1="-22.3983" x2="314.846" y2="160.748" stroke="var(--stroke-0, black)" stroke-width="1.23294"/>
<line id="Line 24" opacity="0.2" x1="657.341" y1="-22.3983" x2="474.195" y2="160.748" stroke="var(--stroke-0, black)" stroke-width="1.23294"/>
<line id="Line 2" opacity="0.2" x1="367.833" y1="-22.3983" x2="184.687" y2="160.748" stroke="var(--stroke-0, black)" stroke-width="1.23294"/>
<line id="Line 25" opacity="0.2" x1="527.182" y1="-22.3983" x2="344.036" y2="160.748" stroke="var(--stroke-0, black)" stroke-width="1.23294"/>
<line id="Line 13" opacity="0.4" x1="448.225" y1="-22.3983" x2="265.079" y2="160.748" stroke="var(--stroke-0, black)" stroke-width="1.23294"/>
<line id="Line 26" opacity="0.2" x1="607.574" y1="-22.3983" x2="424.428" y2="160.748" stroke="var(--stroke-0, black)" stroke-width="1.23294"/>
<line id="Line 7" opacity="0.2" x1="408.029" y1="-22.3983" x2="224.883" y2="160.748" stroke="var(--stroke-0, black)" stroke-width="1.23294"/>
<line id="Line 27" opacity="0.2" x1="567.378" y1="-22.3983" x2="384.232" y2="160.748" stroke="var(--stroke-0, black)" stroke-width="1.23294"/>
<line id="Line 14" opacity="0.2" x1="488.421" y1="-22.3983" x2="305.275" y2="160.748" stroke="var(--stroke-0, black)" stroke-width="1.23294"/>
<line id="Line 28" opacity="0.2" x1="647.77" y1="-22.3983" x2="464.625" y2="160.748" stroke="var(--stroke-0, black)" stroke-width="1.23294"/>
<line id="Line 4" opacity="0.2" x1="387.93" y1="-22.3983" x2="204.785" y2="160.748" stroke="var(--stroke-0, black)" stroke-width="1.23294"/>
<line id="Line 29" opacity="0.2" x1="547.28" y1="-22.3983" x2="364.134" y2="160.748" stroke="var(--stroke-0, black)" stroke-width="1.23294"/>
<line id="Line 15" opacity="0.2" x1="468.323" y1="-22.3983" x2="285.177" y2="160.748" stroke="var(--stroke-0, black)" stroke-width="1.23294"/>
<line id="Line 30" opacity="0.2" x1="627.672" y1="-22.3983" x2="444.526" y2="160.748" stroke="var(--stroke-0, black)" stroke-width="1.23294"/>
<line id="Line 8" opacity="0.2" x1="428.127" y1="-22.3983" x2="244.981" y2="160.748" stroke="var(--stroke-0, black)" stroke-width="1.23294"/>
<line id="Line 31" opacity="0.2" x1="587.476" y1="-22.3983" x2="404.33" y2="160.748" stroke="var(--stroke-0, black)" stroke-width="1.23294"/>
<line id="Line 16" opacity="0.2" x1="508.519" y1="-22.3983" x2="325.373" y2="160.748" stroke="var(--stroke-0, black)" stroke-width="1.23294"/>
<line id="Line 32" opacity="0.2" x1="667.868" y1="-22.3983" x2="484.722" y2="160.748" stroke="var(--stroke-0, black)" stroke-width="1.23294"/>
<line id="Line 33" opacity="0.2" x1="35.5616" y1="-22.3983" x2="-147.584" y2="160.748" stroke="var(--stroke-0, black)" stroke-width="1.23294"/>
<line id="Line 34" opacity="0.2" x1="194.91" y1="-22.3983" x2="11.7644" y2="160.748" stroke="var(--stroke-0, black)" stroke-width="1.23294"/>
<line id="Line 35" opacity="0.2" x1="115.953" y1="-22.3983" x2="-67.1931" y2="160.748" stroke="var(--stroke-0, black)" stroke-width="1.23294"/>
<line id="Line 36" opacity="0.2" x1="275.302" y1="-22.3983" x2="92.1565" y2="160.748" stroke="var(--stroke-0, black)" stroke-width="1.23294"/>
<line id="Line 37" opacity="0.2" x1="75.757" y1="-22.3983" x2="-107.389" y2="160.748" stroke="var(--stroke-0, black)" stroke-width="1.23294"/>
<line id="Line 38" opacity="0.2" x1="235.106" y1="-22.3983" x2="51.9602" y2="160.748" stroke="var(--stroke-0, black)" stroke-width="1.23294"/>
<line id="Line 39" opacity="0.2" x1="156.15" y1="-22.3983" x2="-26.9964" y2="160.748" stroke="var(--stroke-0, black)" stroke-width="1.23294"/>
<line id="Line 40" opacity="0.2" x1="315.499" y1="-22.3983" x2="132.353" y2="160.748" stroke="var(--stroke-0, black)" stroke-width="1.23294"/>
<line id="Line 41" opacity="0.2" x1="55.6591" y1="-22.3983" x2="-127.487" y2="160.748" stroke="var(--stroke-0, black)" stroke-width="1.23294"/>
<line id="Line 42" opacity="0.2" x1="215.009" y1="-22.3983" x2="31.8627" y2="160.748" stroke="var(--stroke-0, black)" stroke-width="1.23294"/>
<line id="Line 43" opacity="0.2" x1="136.052" y1="-22.3983" x2="-47.0943" y2="160.748" stroke="var(--stroke-0, black)" stroke-width="1.23294"/>
<line id="Line 44" opacity="0.2" x1="295.401" y1="-22.3983" x2="112.255" y2="160.748" stroke="var(--stroke-0, black)" stroke-width="1.23294"/>
<line id="Line 45" opacity="0.2" x1="95.8554" y1="-22.3983" x2="-87.2905" y2="160.748" stroke="var(--stroke-0, black)" stroke-width="1.23294"/>
<line id="Line 46" opacity="0.2" x1="255.204" y1="-22.3983" x2="72.0586" y2="160.748" stroke="var(--stroke-0, black)" stroke-width="1.23294"/>
<line id="Line 47" opacity="0.2" x1="176.248" y1="-22.3983" x2="-6.89802" y2="160.748" stroke="var(--stroke-0, black)" stroke-width="1.23294"/>
<line id="Line 48" opacity="0.2" x1="335.597" y1="-22.3983" x2="152.451" y2="160.748" stroke="var(--stroke-0, black)" stroke-width="1.23294"/>
<line id="Line 49" opacity="0.2" x1="46.0885" y1="-22.3983" x2="-137.057" y2="160.748" stroke="var(--stroke-0, black)" stroke-width="1.23294"/>
<line id="Line 50" opacity="0.2" x1="205.438" y1="-22.3983" x2="22.2917" y2="160.748" stroke="var(--stroke-0, black)" stroke-width="1.23294"/>
<line id="Line 51" opacity="0.2" x1="126.481" y1="-22.3983" x2="-56.6645" y2="160.748" stroke="var(--stroke-0, black)" stroke-width="1.23294"/>
<line id="Line 52" opacity="0.2" x1="285.83" y1="-22.3983" x2="102.684" y2="160.748" stroke="var(--stroke-0, black)" stroke-width="1.23294"/>
<line id="Line 53" opacity="0.2" x1="86.2852" y1="-22.3983" x2="-96.8607" y2="160.748" stroke="var(--stroke-0, black)" stroke-width="1.23294"/>
<line id="Line 54" opacity="0.2" x1="245.633" y1="-22.3983" x2="62.4875" y2="160.748" stroke="var(--stroke-0, black)" stroke-width="1.23294"/>
<line id="Line 55" opacity="0.2" x1="166.677" y1="-22.3983" x2="-16.4686" y2="160.748" stroke="var(--stroke-0, black)" stroke-width="1.23294"/>
<line id="Line 56" opacity="0.2" x1="326.026" y1="-22.3983" x2="142.88" y2="160.748" stroke="var(--stroke-0, black)" stroke-width="1.23294"/>
<line id="Line 57" opacity="0.2" x1="66.1868" y1="-22.3983" x2="-116.959" y2="160.748" stroke="var(--stroke-0, black)" stroke-width="1.23294"/>
<line id="Line 58" opacity="0.2" x1="225.536" y1="-22.3983" x2="42.3901" y2="160.748" stroke="var(--stroke-0, black)" stroke-width="1.23294"/>
<line id="Line 59" opacity="0.2" x1="146.579" y1="-22.3983" x2="-36.567" y2="160.748" stroke="var(--stroke-0, black)" stroke-width="1.23294"/>
<line id="Line 60" opacity="0.2" x1="305.928" y1="-22.3983" x2="122.783" y2="160.748" stroke="var(--stroke-0, black)" stroke-width="1.23294"/>
<line id="Line 61" opacity="0.2" x1="106.383" y1="-22.3983" x2="-76.7632" y2="160.748" stroke="var(--stroke-0, black)" stroke-width="1.23294"/>
<line id="Line 62" opacity="0.2" x1="265.732" y1="-22.3983" x2="82.5863" y2="160.748" stroke="var(--stroke-0, black)" stroke-width="1.23294"/>
<line id="Line 63" opacity="0.2" x1="186.775" y1="-22.3983" x2="3.62929" y2="160.748" stroke="var(--stroke-0, black)" stroke-width="1.23294"/>
<line id="Line 64" opacity="0.2" x1="346.124" y1="-22.3983" x2="162.978" y2="160.748" stroke="var(--stroke-0, black)" stroke-width="1.23294"/>
<line id="Line 65" opacity="0.2" x1="356.433" y1="160.747" x2="173.287" y2="-22.399" stroke="var(--stroke-0, black)" stroke-width="1.23294"/>
<line id="Line 66" opacity="0.2" x1="515.782" y1="160.747" x2="332.636" y2="-22.399" stroke="var(--stroke-0, black)" stroke-width="1.23294"/>
<line id="Line 67" opacity="0.2" x1="436.826" y1="160.747" x2="253.68" y2="-22.399" stroke="var(--stroke-0, black)" stroke-width="1.23294"/>
<line id="Line 68" opacity="0.2" x1="596.174" y1="160.747" x2="413.028" y2="-22.399" stroke="var(--stroke-0, black)" stroke-width="1.23294"/>
<line id="Line 69" opacity="0.2" x1="396.629" y1="160.747" x2="213.483" y2="-22.399" stroke="var(--stroke-0, black)" stroke-width="1.23294"/>
<line id="Line 70" opacity="0.3" x1="555.979" y1="160.747" x2="372.833" y2="-22.399" stroke="var(--stroke-0, black)" stroke-width="1.23294"/>
<line id="Line 71" opacity="0.2" x1="477.022" y1="160.747" x2="293.876" y2="-22.399" stroke="var(--stroke-0, black)" stroke-width="1.23294"/>
<line id="Line 72" opacity="0.2" x1="636.37" y1="160.747" x2="453.225" y2="-22.399" stroke="var(--stroke-0, black)" stroke-width="1.23294"/>
<line id="Line 73" opacity="0.2" x1="376.531" y1="160.747" x2="193.385" y2="-22.399" stroke="var(--stroke-0, black)" stroke-width="1.23294"/>
<line id="Line 74" opacity="0.2" x1="535.88" y1="160.747" x2="352.734" y2="-22.399" stroke="var(--stroke-0, black)" stroke-width="1.23294"/>
<line id="Line 75" opacity="0.4" x1="456.924" y1="160.747" x2="273.778" y2="-22.399" stroke="var(--stroke-0, black)" stroke-width="1.23294"/>
<line id="Line 76" opacity="0.2" x1="616.273" y1="160.747" x2="433.127" y2="-22.399" stroke="var(--stroke-0, black)" stroke-width="1.23294"/>
<line id="Line 77" opacity="0.2" x1="416.727" y1="160.747" x2="233.581" y2="-22.399" stroke="var(--stroke-0, black)" stroke-width="1.23294"/>
<line id="Line 78" opacity="0.2" x1="576.076" y1="160.747" x2="392.93" y2="-22.399" stroke="var(--stroke-0, black)" stroke-width="1.23294"/>
<line id="Line 79" opacity="0.2" x1="497.12" y1="160.747" x2="313.974" y2="-22.399" stroke="var(--stroke-0, black)" stroke-width="1.23294"/>
<line id="Line 80" opacity="0.2" x1="656.469" y1="160.747" x2="473.323" y2="-22.399" stroke="var(--stroke-0, black)" stroke-width="1.23294"/>
<line id="Line 81" opacity="0.2" x1="366.961" y1="160.747" x2="183.815" y2="-22.399" stroke="var(--stroke-0, black)" stroke-width="1.23294"/>
<line id="Line 82" opacity="0.2" x1="526.31" y1="160.747" x2="343.164" y2="-22.399" stroke="var(--stroke-0, black)" stroke-width="1.23294"/>
<line id="Line 83" opacity="0.2" x1="447.353" y1="160.747" x2="264.207" y2="-22.399" stroke="var(--stroke-0, black)" stroke-width="1.23294"/>
<line id="Line 84" opacity="0.2" x1="606.702" y1="160.747" x2="423.556" y2="-22.399" stroke="var(--stroke-0, black)" stroke-width="1.23294"/>
<line id="Line 85" opacity="0.4" x1="407.157" y1="160.747" x2="224.011" y2="-22.399" stroke="var(--stroke-0, black)" stroke-width="1.23294"/>
<line id="Line 86" opacity="0.2" x1="566.506" y1="160.747" x2="383.36" y2="-22.399" stroke="var(--stroke-0, black)" stroke-width="1.23294"/>
<line id="Line 87" opacity="0.2" x1="487.549" y1="160.747" x2="304.403" y2="-22.399" stroke="var(--stroke-0, black)" stroke-width="1.23294"/>
<line id="Line 88" opacity="0.2" x1="646.899" y1="160.747" x2="463.753" y2="-22.399" stroke="var(--stroke-0, black)" stroke-width="1.23294"/>
<line id="Line 89" opacity="0.2" x1="387.059" y1="160.747" x2="203.913" y2="-22.399" stroke="var(--stroke-0, black)" stroke-width="1.23294"/>
<line id="Line 90" opacity="0.2" x1="546.408" y1="160.747" x2="363.262" y2="-22.399" stroke="var(--stroke-0, black)" stroke-width="1.23294"/>
<line id="Line 91" opacity="0.2" x1="467.451" y1="160.747" x2="284.305" y2="-22.399" stroke="var(--stroke-0, black)" stroke-width="1.23294"/>
<line id="Line 92" opacity="0.2" x1="626.8" y1="160.747" x2="443.654" y2="-22.399" stroke="var(--stroke-0, black)" stroke-width="1.23294"/>
<line id="Line 93" opacity="0.2" x1="427.255" y1="160.747" x2="244.109" y2="-22.399" stroke="var(--stroke-0, black)" stroke-width="1.23294"/>
<line id="Line 94" opacity="0.2" x1="586.604" y1="160.747" x2="403.459" y2="-22.399" stroke="var(--stroke-0, black)" stroke-width="1.23294"/>
<line id="Line 95" opacity="0.2" x1="507.647" y1="160.747" x2="324.501" y2="-22.399" stroke="var(--stroke-0, black)" stroke-width="1.23294"/>
<line id="Line 96" opacity="0.2" x1="666.996" y1="160.747" x2="483.85" y2="-22.399" stroke="var(--stroke-0, black)" stroke-width="1.23294"/>
<line id="Line 97" opacity="0.2" x1="34.6898" y1="160.747" x2="-148.456" y2="-22.399" stroke="var(--stroke-0, black)" stroke-width="1.23294"/>
<line id="Line 98" opacity="0.2" x1="194.038" y1="160.747" x2="10.8926" y2="-22.399" stroke="var(--stroke-0, black)" stroke-width="1.23294"/>
<line id="Line 99" opacity="0.2" x1="115.081" y1="160.747" x2="-68.0649" y2="-22.399" stroke="var(--stroke-0, black)" stroke-width="1.23294"/>
<line id="Line 100" opacity="0.2" x1="274.431" y1="160.747" x2="91.2847" y2="-22.399" stroke="var(--stroke-0, black)" stroke-width="1.23294"/>
<line id="Line 101" opacity="0.2" x1="74.8852" y1="160.747" x2="-108.261" y2="-22.399" stroke="var(--stroke-0, black)" stroke-width="1.23294"/>
<line id="Line 102" opacity="0.2" x1="234.234" y1="160.747" x2="51.0884" y2="-22.399" stroke="var(--stroke-0, black)" stroke-width="1.23294"/>
<line id="Line 103" opacity="0.1" x1="155.278" y1="160.747" x2="-27.8682" y2="-22.399" stroke="var(--stroke-0, black)" stroke-width="1.23294"/>
<line id="Line 104" opacity="0.2" x1="314.627" y1="160.747" x2="131.481" y2="-22.399" stroke="var(--stroke-0, black)" stroke-width="1.23294"/>
<line id="Line 105" opacity="0.2" x1="54.7873" y1="160.747" x2="-128.359" y2="-22.399" stroke="var(--stroke-0, black)" stroke-width="1.23294"/>
<line id="Line 106" opacity="0.2" x1="214.137" y1="160.747" x2="30.9909" y2="-22.399" stroke="var(--stroke-0, black)" stroke-width="1.23294"/>
<line id="Line 107" opacity="0.2" x1="135.18" y1="160.747" x2="-47.9661" y2="-22.399" stroke="var(--stroke-0, black)" stroke-width="1.23294"/>
<line id="Line 108" opacity="0.2" x1="294.529" y1="160.747" x2="111.383" y2="-22.399" stroke="var(--stroke-0, black)" stroke-width="1.23294"/>
<line id="Line 109" opacity="0.2" x1="94.9835" y1="160.747" x2="-88.1624" y2="-22.399" stroke="var(--stroke-0, black)" stroke-width="1.23294"/>
<line id="Line 110" opacity="0.2" x1="254.333" y1="160.747" x2="71.1867" y2="-22.399" stroke="var(--stroke-0, black)" stroke-width="1.23294"/>
<line id="Line 111" opacity="0.2" x1="175.376" y1="160.747" x2="-7.76984" y2="-22.399" stroke="var(--stroke-0, black)" stroke-width="1.23294"/>
<line id="Line 112" opacity="0.4" x1="334.725" y1="160.747" x2="151.579" y2="-22.399" stroke="var(--stroke-0, black)" stroke-width="1.23294"/>
<line id="Line 113" opacity="0.2" x1="45.2167" y1="160.747" x2="-137.929" y2="-22.399" stroke="var(--stroke-0, black)" stroke-width="1.23294"/>
<line id="Line 114" opacity="0.2" x1="204.566" y1="160.747" x2="21.4199" y2="-22.399" stroke="var(--stroke-0, black)" stroke-width="1.23294"/>
<line id="Line 115" opacity="0.2" x1="125.61" y1="160.747" x2="-57.5363" y2="-22.399" stroke="var(--stroke-0, black)" stroke-width="1.23294"/>
<line id="Line 116" opacity="0.4" x1="284.958" y1="160.747" x2="101.812" y2="-22.399" stroke="var(--stroke-0, black)" stroke-width="1.23294"/>
<line id="Line 117" opacity="0.2" x1="85.4134" y1="160.747" x2="-97.7325" y2="-22.399" stroke="var(--stroke-0, black)" stroke-width="1.23294"/>
<line id="Line 118" opacity="0.2" x1="244.762" y1="160.747" x2="61.6157" y2="-22.399" stroke="var(--stroke-0, black)" stroke-width="1.23294"/>
<line id="Line 119" opacity="0.2" x1="165.805" y1="160.747" x2="-17.3404" y2="-22.399" stroke="var(--stroke-0, black)" stroke-width="1.23294"/>
<line id="Line 120" opacity="0.2" x1="325.154" y1="160.747" x2="142.008" y2="-22.399" stroke="var(--stroke-0, black)" stroke-width="1.23294"/>
<line id="Line 121" opacity="0.2" x1="65.315" y1="160.747" x2="-117.831" y2="-22.399" stroke="var(--stroke-0, black)" stroke-width="1.23294"/>
<line id="Line 122" opacity="0.2" x1="224.664" y1="160.747" x2="41.5182" y2="-22.399" stroke="var(--stroke-0, black)" stroke-width="1.23294"/>
<line id="Line 123" opacity="0.2" x1="145.707" y1="160.747" x2="-37.4388" y2="-22.399" stroke="var(--stroke-0, black)" stroke-width="1.23294"/>
<line id="Line 124" opacity="0.2" x1="305.057" y1="160.747" x2="121.911" y2="-22.399" stroke="var(--stroke-0, black)" stroke-width="1.23294"/>
<line id="Line 125" opacity="0.2" x1="105.511" y1="160.747" x2="-77.635" y2="-22.399" stroke="var(--stroke-0, black)" stroke-width="1.23294"/>
<line id="Line 126" opacity="0.2" x1="264.86" y1="160.747" x2="81.7145" y2="-22.399" stroke="var(--stroke-0, black)" stroke-width="1.23294"/>
<line id="Line 127" opacity="0.2" x1="185.903" y1="160.747" x2="2.75747" y2="-22.399" stroke="var(--stroke-0, black)" stroke-width="1.23294"/>
<line id="Line 128" opacity="0.2" x1="345.252" y1="160.747" x2="162.107" y2="-22.399" stroke="var(--stroke-0, black)" stroke-width="1.23294"/>
</g>
</g>
<defs>
<filter id="filter0_d_0_224" x="0" y="0" width="531.365" height="136.825" filterUnits="userSpaceOnUse" color-interpolation-filters="sRGB">
<feFlood flood-opacity="0" result="BackgroundImageFix"/>
<feColorMatrix in="SourceAlpha" type="matrix" values="0 0 0 0 0 0 0 0 0 0 0 0 0 0 0 0 0 0 127 0" result="hardAlpha"/>
<feOffset/>
<feGaussianBlur stdDeviation="7.08162"/>
<feComposite in2="hardAlpha" operator="out"/>
<feColorMatrix type="matrix" values="0 0 0 0 0 0 0 0 0 0 0 0 0 0 0 0 0 0 0.4 0"/>
<feBlend mode="normal" in2="BackgroundImageFix" result="effect1_dropShadow_0_224"/>
<feBlend mode="normal" in="SourceGraphic" in2="effect1_dropShadow_0_224" result="shape"/>
</filter>
<clipPath id="clip0_0_224">
<rect width="503.039" height="108.499" fill="white" transform="translate(14.1632 14.1632)"/>
</clipPath>
</defs>
</svg>
