<svg preserveAspectRatio="none" width="100%" height="100%" overflow="visible" style="display: block;" viewBox="0 0 18.4334 22.1811" fill="none" xmlns="http://www.w3.org/2000/svg">
<g id="Group">
<path id="Vector" d="M15.6221 18.4334C17.1723 18.4334 18.4334 17.1722 18.4334 15.6221V2.81137C18.4334 1.26119 17.1722 0 15.6221 0H2.81137C1.26119 0 0 1.26119 0 2.81137V15.6221C0 17.1723 1.26119 18.4334 2.81131 18.4334H4.13956V21.2436C4.13956 21.5087 4.25181 21.7614 4.4485 21.9392C4.62163 22.0956 4.84588 22.1811 5.077 22.1811C5.10844 22.1811 5.14013 22.1796 5.17169 22.1763C5.32094 22.1612 8.66456 21.7831 10.3293 18.4334H15.6221ZM9.71638 13.0546C9.55238 12.9671 9.38488 12.8682 9.21675 12.7583C9.04856 12.8682 8.88112 12.9671 8.71712 13.0546C7.1175 13.9077 5.52069 13.9175 5.4535 13.9175C4.93575 13.9175 4.516 13.4977 4.516 12.98C4.516 12.4622 4.93575 12.0425 5.4535 12.0425C5.46175 12.0424 6.61844 12.0256 7.76937 11.4342C7.11087 10.591 6.59187 9.44681 6.44194 7.89625H5.45344C4.93569 7.89625 4.51594 7.4765 4.51594 6.95875C4.51594 6.441 4.93569 6.02125 5.45344 6.02125H8.27925V5.45344C8.27925 4.93569 8.699 4.51594 9.21675 4.51594C9.7345 4.51594 10.1543 4.93569 10.1543 5.45344V6.02125H12.98C13.4977 6.02125 13.9175 6.441 13.9175 6.95875C13.9175 7.4765 13.4977 7.89625 12.98 7.89625H11.9916C11.8416 9.44681 11.3227 10.591 10.6642 11.4342C11.8151 12.0256 12.9719 12.0424 12.9839 12.0425C13.5016 12.0425 13.9194 12.4622 13.9194 12.98C13.9194 13.4977 13.4977 13.9175 12.98 13.9175C12.9128 13.9175 11.316 13.9077 9.71638 13.0546Z" fill="var(--fill-0, #2C2C2C)"/>
</g>
</svg>
