<svg preserveAspectRatio="none" width="100%" height="100%" overflow="visible" style="display: block;" viewBox="0 0 18.4334 22.181" fill="none" xmlns="http://www.w3.org/2000/svg">
<g id="Group">
<path id="Vector" d="M15.6221 3.74765H14.2938V0.937461C14.2938 0.672336 14.1816 0.419649 13.9849 0.241899C13.7882 0.0641485 13.5253 -0.0219144 13.2617 0.00477311C13.1124 0.0198981 9.76881 0.398023 8.10413 3.74765H6.74188V5.80321C6.74188 8.38727 4.63956 10.4895 2.05556 10.4895H0V19.3697C0 20.9199 1.26119 22.181 2.81131 22.181H15.6221C17.1722 22.1811 18.4334 20.9199 18.4334 19.3698V6.55902C18.4334 5.00884 17.1722 3.74765 15.6221 3.74765ZM4.61481 16.3084L8.37806 8.78184C8.53688 8.46421 8.8615 8.26359 9.21663 8.26359C9.57175 8.26359 9.89631 8.46421 10.0552 8.78184L13.8185 16.3084C14.0501 16.7715 13.8623 17.3346 13.3993 17.5662C12.9362 17.7978 12.373 17.6101 12.1414 17.147L11.4598 15.7836H6.97363L6.29194 17.147C6.12769 17.4755 5.79656 17.6654 5.45269 17.6654C5.31181 17.6654 5.16875 17.6335 5.03419 17.5662C4.571 17.3346 4.38331 16.7715 4.61481 16.3084Z" fill="var(--fill-0, #2C2C2C)"/>
</g>
</svg>
