<svg preserveAspectRatio="none" width="100%" height="100%" overflow="visible" style="display: block;" viewBox="0 0 11.2832 11.2832" fill="none" xmlns="http://www.w3.org/2000/svg">
<g id="Group">
<path id="Vector" d="M2.15622 5.3637C2.33928 5.54676 2.57922 5.63832 2.81909 5.63832C3.05897 5.63832 3.29897 5.54682 3.48197 5.3637C3.8481 4.99757 3.8481 4.40401 3.48197 4.03788L3.21285 3.76876C6.66341 3.9732 9.40816 6.8447 9.40816 10.3457C9.40816 10.8634 9.82791 11.2832 10.3457 11.2832C10.8634 11.2832 11.2832 10.8634 11.2832 10.3457C11.2832 5.80363 7.68672 2.08626 3.19203 1.89032L3.48197 1.60038C3.8481 1.23426 3.8481 0.640695 3.48197 0.27457C3.11591 -0.0914922 2.52228 -0.0915547 2.15616 0.27457L0.274594 2.15626C-0.0915312 2.52238 -0.0915312 3.11595 0.274594 3.48207L2.15622 5.3637Z" fill="var(--fill-0, #2C2C2C)"/>
</g>
</svg>
