<svg preserveAspectRatio="none" width="100%" height="100%" overflow="visible" style="display: block;" viewBox="0 0 11.2832 11.2832" fill="none" xmlns="http://www.w3.org/2000/svg">
<g id="Group">
<path id="Vector" d="M9.127 5.9195C8.76094 5.55338 8.16731 5.55338 7.80119 5.9195C7.43506 6.28563 7.43506 6.87919 7.80119 7.24531L8.07031 7.51444C4.61975 7.31006 1.875 4.4385 1.875 0.9375C1.875 0.41975 1.45525 0 0.9375 0C0.41975 0 0 0.41975 0 0.9375C0 5.47956 3.59644 9.19694 8.09113 9.39287L7.80119 9.68281C7.43506 10.0489 7.43506 10.6425 7.80119 11.0086C7.98425 11.1917 8.22419 11.2832 8.46406 11.2832C8.70394 11.2832 8.94394 11.1917 9.12694 11.0086L11.0086 9.12694C11.3747 8.76081 11.3747 8.16725 11.0086 7.80112L9.127 5.9195Z" fill="var(--fill-0, #2C2C2C)"/>
</g>
</svg>
