<svg preserveAspectRatio="none" width="100%" height="100%" overflow="visible" style="display: block;" viewBox="0 0 193.75 193.75" fill="none" xmlns="http://www.w3.org/2000/svg">
<g id="User">
<path id="Vector" d="M96.875 193.75C150.378 193.75 193.75 150.378 193.75 96.875C193.75 43.3724 150.378 0 96.875 0C43.3724 0 0 43.3724 0 96.875C0 150.378 43.3724 193.75 96.875 193.75Z" fill="var(--fill-0, #F5EDD6)"/>
<g id="Group">
<path id="Vector_2" d="M174.616 154.609C165.581 142.513 153.849 132.691 140.353 125.923C126.856 119.156 111.968 115.63 96.8699 115.625C81.772 115.62 66.8811 119.137 53.3806 125.896C39.8802 132.655 28.1422 142.47 19.0997 154.56C28.0963 166.712 39.815 176.586 53.3163 183.392C66.8176 190.198 81.7258 193.745 96.8454 193.75C111.965 193.755 126.875 190.217 140.381 183.419C153.887 176.622 165.611 166.755 174.616 154.609Z" fill="var(--fill-0, #C9A84C)"/>
<path id="Vector_3" d="M96.875 103.125C117.586 103.125 134.375 86.3357 134.375 65.625C134.375 44.9143 117.586 28.125 96.875 28.125C76.1643 28.125 59.375 44.9143 59.375 65.625C59.375 86.3357 76.1643 103.125 96.875 103.125Z" fill="var(--fill-0, #C9A84C)"/>
</g>
</g>
</svg>
