<svg preserveAspectRatio="none" width="100%" height="100%" overflow="visible" style="display: block;" viewBox="0 0 33.4615 33.4615" fill="none" xmlns="http://www.w3.org/2000/svg">
<g id="fi_1714529" clip-path="url(#clip0_0_33)">
<path id="Vector" d="M18.9962 23.2555C19.3342 23.6458 19.916 23.7046 20.324 23.3972C21.1672 22.7653 28.5584 17.0981 28.5584 12.8105C28.5584 11.1092 28.0828 9.77482 27.1436 8.8453C25.4186 7.1374 22.5562 7.10753 20.0281 7.12463C18.2627 7.13918 16.4305 7.16012 15.7941 6.52929C15.6705 6.40777 15.5076 6.18286 15.5076 5.64777C15.5518 5.10962 16.9398 3.24879 18.4782 1.66522C18.7835 1.35121 18.8438 0.872539 18.6247 0.492665C18.4065 0.112536 17.9612 -0.0799539 17.5382 0.031098C17.1867 0.118408 8.953 2.31647 8.953 8.75518C8.953 14.053 13.9243 14.3754 17.5543 14.6121C21.1156 14.8436 22.677 15.1137 22.677 16.7315C22.677 17.6896 20.7901 20.1711 19.0429 21.9201C18.6791 22.2839 18.6592 22.8667 18.9962 23.2555Z" fill="var(--fill-0, #FDFDFD)"/>
<path id="Vector_2" d="M18.0781 24.7142C16.914 24.1419 16.4047 23.8039 16.4047 22.9788C16.4047 22.1751 18.071 20.0161 18.5913 19.2357C18.8507 18.8471 18.7988 18.3291 18.4687 17.9988C18.1364 17.6677 17.6176 17.6151 17.2319 17.8762C11.1107 21.9573 8.66503 24.4472 8.79216 26.4709C8.89454 28.0963 10.4388 28.8671 11.9323 29.611C13.6851 30.4859 14.8347 31.2186 14.8347 32.4812C14.8347 32.8774 15.0731 33.2354 15.4397 33.3868C15.8009 33.5374 16.225 33.4572 16.5081 33.1741C19.4411 30.241 20.5412 28.3932 20.3038 26.9562C20.097 25.7099 18.9778 25.1574 18.0781 24.7142Z" fill="var(--fill-0, #FDFDFD)"/>
<path id="Vector_3" d="M28.5584 3.92251H29.5387C30.0807 3.92251 30.519 3.48417 30.519 2.94219C30.519 2.40046 30.0807 1.96212 29.5387 1.96212H28.5584V0.981804C28.5584 0.43982 28.12 0.00148369 27.5783 0.00148369C27.0363 0.00148369 26.598 0.43982 26.598 0.981804V1.96212H25.6177C25.0759 1.96212 24.6374 2.40046 24.6374 2.94219C24.6374 3.48417 25.0759 3.92251 25.6177 3.92251H26.598V4.90283C26.598 5.44456 27.0363 5.88315 27.5783 5.88315C28.12 5.88315 28.5584 5.44456 28.5584 4.90283V3.92251Z" fill="var(--fill-0, #FDFDFD)"/>
<path id="Vector_4" d="M8.95301 0.981804C8.95301 1.52328 8.51416 1.96212 7.97294 1.96212C7.43147 1.96212 6.99262 1.52328 6.99262 0.981804C6.99262 0.44033 7.43147 0.00148369 7.97294 0.00148369C8.51416 0.00148369 8.95301 0.44033 8.95301 0.981804Z" fill="var(--fill-0, #FDFDFD)"/>
<path id="Vector_5" d="M32.4797 16.7315C32.4797 17.2727 32.0408 17.7118 31.4993 17.7118C30.9579 17.7118 30.519 17.2727 30.519 16.7315C30.519 16.19 30.9579 15.7512 31.4993 15.7512C32.0408 15.7512 32.4797 16.19 32.4797 16.7315Z" fill="var(--fill-0, #FDFDFD)"/>
<path id="Vector_6" d="M6.99261 28.4946C6.99261 29.0361 6.55376 29.4749 6.01229 29.4749C5.47082 29.4749 5.03197 29.0361 5.03197 28.4946C5.03197 27.9534 5.47082 27.5145 6.01229 27.5145C6.55376 27.5145 6.99261 27.9534 6.99261 28.4946Z" fill="var(--fill-0, #FDFDFD)"/>
<path id="Vector_7" d="M11.894 18.6919C12.4357 18.6919 12.8743 18.2536 12.8743 17.7118C12.8743 17.1699 12.4357 16.7315 11.894 16.7315C9.73138 16.7315 7.97294 14.9728 7.97294 12.8105C7.97294 12.2685 7.53434 11.8302 6.99261 11.8302C6.45063 11.8302 6.01229 12.2685 6.01229 12.8105C6.01229 14.9728 4.25385 16.7315 2.09127 16.7315C1.54928 16.7315 1.11095 17.1699 1.11095 17.7118C1.11095 18.2536 1.54928 18.6919 2.09127 18.6919C4.25385 18.6919 6.01229 20.4506 6.01229 22.6132C6.01229 23.1549 6.45063 23.5932 6.99261 23.5932C7.53434 23.5932 7.97294 23.1549 7.97294 22.6132C7.97294 20.4506 9.73138 18.6919 11.894 18.6919ZM6.99261 19.3649C6.55709 18.7103 5.99417 18.1474 5.33935 17.7118C5.99417 17.2761 6.55709 16.7134 6.99261 16.0586C7.42814 16.7134 7.99106 17.2761 8.64588 17.7118C7.99106 18.1474 7.42814 18.7103 6.99261 19.3649Z" fill="var(--fill-0, #FDFDFD)"/>
<path id="Vector_8" d="M31.4993 25.5539C29.8777 25.5539 28.5584 24.2348 28.5584 22.6132C28.5584 22.0712 28.12 21.6329 27.5783 21.6329C27.0363 21.6329 26.598 22.0712 26.598 22.6132C26.598 24.2348 25.2787 25.5539 23.657 25.5539C23.1153 25.5539 22.677 25.9922 22.677 26.5342C22.677 27.0759 23.1153 27.5145 23.657 27.5145C25.2787 27.5145 26.598 28.8336 26.598 30.4552C26.598 30.997 27.0363 31.4355 27.5783 31.4355C28.12 31.4355 28.5584 30.997 28.5584 30.4552C28.5584 28.8336 29.8777 27.5145 31.4993 27.5145C32.0411 27.5145 32.4797 27.0759 32.4797 26.5342C32.4797 25.9922 32.0411 25.5539 31.4993 25.5539ZM27.5783 27.5173C27.2988 27.1449 26.9674 26.8137 26.5952 26.5342C26.9674 26.2547 27.2988 25.9233 27.5783 25.5511C27.8576 25.9233 28.189 26.2547 28.5614 26.5342C28.189 26.8137 27.8576 27.1449 27.5783 27.5173Z" fill="var(--fill-0, #FDFDFD)"/>
</g>
<defs>
<clipPath id="clip0_0_33">
<rect width="33.4615" height="33.4615" fill="white"/>
</clipPath>
</defs>
</svg>
